<svg width="30" height="34" viewBox="0 0 30 34" fill="none" xmlns="http://www.w3.org/2000/svg">
<g clip-path="url(#clip0_7_12868)">
<path d="M30 18.113C29.9989 21.2266 29.029 24.2627 27.2247 26.8003C25.4204 29.3378 22.8711 31.251 19.9305 32.2744C16.9899 33.2979 13.8037 33.3809 10.8138 32.5119C7.82389 31.643 5.17849 29.8651 3.2445 27.425C1.75754 25.5489 0.741221 23.3441 0.280461 20.995C-0.180298 18.6458 -0.0721105 16.2205 0.595984 13.9217C1.26408 11.6229 2.47267 9.5174 4.12077 7.78114C5.76886 6.04487 7.80859 4.72829 10.0695 3.9414C12.3304 3.15452 14.7468 2.9202 17.1167 3.25801C19.4867 3.59583 21.7414 4.49598 23.6924 5.88323C25.6434 7.27048 27.234 9.10454 28.3313 11.2321C29.4286 13.3597 30.0008 15.7191 30 18.113Z" fill="#F0F0F0"/>
<path d="M15 1.65949C14.1159 1.6585 13.2403 1.83179 12.4232 2.16944C11.6061 2.50708 10.8636 3.00247 10.2381 3.62727C9.6126 4.25208 9.11639 4.99405 8.77783 5.81075C8.43927 6.62746 8.26501 7.50289 8.26501 8.38699V23.255H21.7185V8.38699C21.7189 6.60418 21.0115 4.89415 19.7517 3.63267C18.4919 2.37119 16.7828 1.66148 15 1.65949Z" fill="#7C7C7C"/>
<path d="M26.7555 27.425C25.3511 29.197 23.5642 30.6286 21.5285 31.6126C19.4929 32.5967 17.2611 33.1079 15 33.1079C12.7389 33.1079 10.5071 32.5967 8.47147 31.6126C6.4358 30.6286 4.64894 29.197 3.24451 27.425C4.26151 22.9385 7.10251 20.387 15 20.387C22.8975 20.387 25.7385 22.943 26.7555 27.425Z" fill="#DFDFDF"/>
<path d="M18.645 23.12C18.645 25.67 16.6245 27.584 14.997 27.584C13.3695 27.584 11.3475 25.6715 11.3475 23.12C11.3475 22.046 11.637 21.332 12.1215 20.87C12.2583 20.7424 12.3676 20.5883 12.4429 20.417C12.5182 20.2458 12.5579 20.0611 12.5595 19.874V17.0375H17.424V19.8635C17.4247 19.944 17.4322 20.0243 17.4465 20.1035C17.5043 20.3937 17.6505 20.6588 17.865 20.8625C18.354 21.3275 18.645 22.043 18.645 23.12Z" fill="white"/>
<path opacity="0.09" d="M17.4465 20.1035C16.8487 20.4625 16.1653 20.6537 15.468 20.657C14.391 20.657 13.389 20.1935 12.5595 19.4V17.0375H17.424V19.8635C17.4247 19.944 17.4322 20.0243 17.4465 20.1035Z" fill="black"/>
<path d="M21.1605 12.89C20.961 13.757 20.6175 14.4155 20.0295 14.282C19.995 14.273 19.9635 14.2625 19.9335 14.252C19.2885 17.225 17.3205 19.3895 14.9925 19.3895C12.1425 19.3895 9.828 16.1435 9.828 12.1355C9.828 8.1275 12.1395 4.8815 15 4.8815C17.6655 4.8815 19.8585 7.718 20.1345 11.36C20.2076 11.2684 20.3052 11.1995 20.4159 11.1612C20.5267 11.123 20.646 11.117 20.76 11.144C20.8261 11.1588 20.8894 11.1841 20.9475 11.219C21.342 11.459 21.3375 12.125 21.1605 12.89Z" fill="white"/>
<path opacity="0.07" d="M21.1605 12.89C20.961 13.757 20.6175 14.4155 20.0295 14.282C19.995 14.273 19.9635 14.2625 19.9335 14.252C19.2885 17.225 17.3205 19.3895 14.9925 19.3895C14.9145 19.3895 14.8425 19.3895 14.763 19.382C17.2725 19.2125 19.275 16.0325 19.275 12.1355C19.275 8.2385 17.2725 5.0585 14.763 4.889C14.838 4.889 14.913 4.8815 14.9925 4.8815C17.658 4.8815 19.851 7.718 20.127 11.36C20.2001 11.2684 20.2977 11.1995 20.4084 11.1612C20.5191 11.123 20.6385 11.117 20.7525 11.144C20.8186 11.1588 20.8819 11.1841 20.94 11.219C21.342 11.459 21.3375 12.125 21.1605 12.89Z" fill="black"/>
<path opacity="0.07" d="M20.94 11.225C20.7091 11.5499 20.4469 11.8514 20.157 12.125L20.1465 12.134C20.1465 8.4995 13.671 9.7115 12.441 7.0055C10.881 8.021 9.828 9.938 9.828 12.134C9.828 8.129 12.1395 4.88 14.9925 4.88C17.658 4.88 19.851 7.7165 20.127 11.3585C20.2001 11.2669 20.2977 11.198 20.4084 11.1597C20.5192 11.1215 20.6385 11.1155 20.7525 11.1425C20.8191 11.1596 20.8824 11.1875 20.94 11.225Z" fill="black"/>
<path d="M21.7185 8.387C21.7185 10.3115 20.289 11.975 20.157 12.125L20.1465 12.1355C20.1465 8.4155 13.671 9.1565 12.441 5.8355C10.881 7.0835 9.82801 9.4355 9.82801 12.1355C9.82801 12.1355 8.26501 11.504 8.26501 8.3855C8.2914 6.61885 9.01171 4.93349 10.2704 3.69351C11.529 2.45352 13.2249 1.75845 14.9918 1.75845C16.7586 1.75845 18.4545 2.45352 19.7132 3.69351C20.9718 4.93349 21.6921 6.61885 21.7185 8.3855V8.387Z" fill="#7C7C7C"/>
<path d="M18.873 2.89238L18.8505 2.90588C16.8675 4.01138 14.265 2.87738 12.177 3.75938C9.50401 4.88288 9.18601 8.16938 9.18601 9.24788V21.0589C8.86401 21.1499 8.55701 21.2499 8.26501 21.3589V8.38688C8.26467 7.15377 8.60334 5.94429 9.24398 4.89065C9.88463 3.83701 10.8026 2.97977 11.8976 2.41263C12.9925 1.84548 14.2223 1.59027 15.4525 1.67488C16.6827 1.75949 17.866 2.18067 18.873 2.89238Z" fill="#949494"/>
</g>
<defs>
<clipPath id="clip0_7_12868">
<rect width="30" height="32.25" fill="white" transform="translate(0 0.875)"/>
</clipPath>
</defs>
</svg>
