<svg width="16" height="16" viewBox="0 0 16 16" fill="none" xmlns="http://www.w3.org/2000/svg">
<path d="M14.6666 11.0968V13.0968C14.6674 13.2825 14.6294 13.4663 14.555 13.6364C14.4806 13.8065 14.3715 13.9592 14.2347 14.0847C14.0979 14.2103 13.9364 14.3058 13.7605 14.3653C13.5846 14.4248 13.3982 14.4469 13.2133 14.4302C11.1619 14.2073 9.19131 13.5063 7.45998 12.3835C5.84919 11.3599 4.48353 9.99428 3.45998 8.3835C2.33329 6.6443 1.63214 4.66416 1.41331 2.6035C1.39665 2.41914 1.41856 2.23334 1.47764 2.05791C1.53673 1.88249 1.63169 1.72129 1.75649 1.58458C1.88128 1.44787 2.03318 1.33864 2.2025 1.26385C2.37183 1.18906 2.55487 1.15034 2.73998 1.15017H4.73998C5.06351 1.14698 5.37717 1.26155 5.62248 1.47252C5.8678 1.68349 6.02803 1.97646 6.07331 2.29683C6.15772 2.93688 6.31428 3.56532 6.53998 4.17017C6.62967 4.40878 6.64908 4.66811 6.59591 4.91742C6.54274 5.16673 6.41922 5.39557 6.23998 5.57683L5.39331 6.4235C6.34235 8.09253 7.72428 9.47446 9.39331 10.4235L10.24 9.57683C10.4212 9.39759 10.6501 9.27407 10.8994 9.22089C11.1487 9.16772 11.408 9.18714 11.6466 9.27683C12.2515 9.50253 12.8799 9.65908 13.52 9.7435C13.8438 9.78919 14.1396 9.9523 14.351 10.2018C14.5624 10.4514 14.6748 10.7699 14.6666 11.0968Z" stroke="#87898F" stroke-width="1.5" stroke-linecap="round" stroke-linejoin="round"/>
</svg>
