<svg width="14" height="14" viewBox="0 0 14 14" fill="none" xmlns="http://www.w3.org/2000/svg">
<path d="M10.0222 10.2168V9.46128C10.0222 9.06051 9.86302 8.67615 9.57963 8.39276C9.29624 8.10937 8.91189 7.95017 8.51112 7.95017H5.48889C5.08812 7.95017 4.70377 8.10937 4.42038 8.39276C4.13699 8.67615 3.97778 9.06051 3.97778 9.46128V10.2168M2.33333 0.816833H11.6667C12.403 0.816833 13 1.41379 13 2.15017V11.4835C13 12.2199 12.403 12.8168 11.6667 12.8168H2.33333C1.59695 12.8168 1 12.2199 1 11.4835V2.15017C1 1.41379 1.59695 0.816833 2.33333 0.816833ZM8.51108 4.92794C8.51108 5.76251 7.83453 6.43905 6.99997 6.43905C6.1654 6.43905 5.48886 5.76251 5.48886 4.92794C5.48886 4.09338 6.1654 3.41683 6.99997 3.41683C7.83453 3.41683 8.51108 4.09338 8.51108 4.92794Z" stroke="#87898F" stroke-width="1.5" stroke-linecap="round" stroke-linejoin="round"/>
</svg>
