<svg width="30" height="34" viewBox="0 0 30 34" fill="none" xmlns="http://www.w3.org/2000/svg">
<g clip-path="url(#clip0_7_14212)">
<path d="M30 18.125C30.001 21.4594 28.891 24.699 26.8454 27.3322C24.7997 29.9653 21.935 31.8418 18.7039 32.6651C15.4728 33.4885 12.0594 33.2117 9.00314 31.8787C5.94683 30.5456 3.42181 28.2322 1.827 25.304C0.734166 23.2974 0.11417 21.0677 0.0143288 18.785C-0.0855128 16.5024 0.337439 14.227 1.25091 12.1327C2.16437 10.0384 3.54421 8.18045 5.28511 6.70064C7.02602 5.22083 9.08198 4.15828 11.2961 3.59408C13.5102 3.02989 15.8239 2.97896 18.0607 3.44518C20.2975 3.9114 22.3982 4.88245 24.2026 6.28422C26.0069 7.686 27.4672 9.48144 28.4719 11.5335C29.4766 13.5856 29.9993 15.8401 30 18.125Z" fill="#F0F0F0"/>
<path d="M28.173 25.304C26.8833 27.672 24.9792 29.6485 22.6611 31.0257C20.3429 32.4028 17.6964 33.1296 15 33.1296C12.3036 33.1296 9.6571 32.4028 7.33893 31.0257C5.02076 29.6485 3.11665 27.672 1.827 25.304C5.001 23.075 9.726 21.656 15 21.656C20.274 21.656 24.999 23.075 28.173 25.304Z" fill="#DFDFDF"/>
<path d="M20.2875 23.639C20.2875 25.2395 17.8665 26.5385 14.877 26.5385C11.8875 26.5385 9.46799 25.2395 9.46799 23.639C9.46799 22.769 10.1805 22.187 11.3115 21.839V16.4555H18.45V21.836C19.5735 22.187 20.2875 22.775 20.2875 23.639Z" fill="white"/>
<path opacity="0.09" d="M18.45 16.4555V21.5C17.565 22.31 16.5 22.7825 15.36 22.7825C13.77 22.7825 12.336 21.869 11.319 20.399V16.4555H18.45Z" fill="black"/>
<path d="M21.45 13.175C21.4431 13.4908 21.4166 13.806 21.3705 14.1185C21.2205 15.242 20.9745 16.1495 20.1285 16.142C19.35 19.088 17.2965 21.1925 14.8785 21.1925C12.4605 21.1925 10.413 19.0925 9.63599 16.142C8.78999 16.1495 8.54549 15.242 8.39399 14.1185C8.31263 13.653 8.29647 13.1784 8.34599 12.7085C8.40599 12.338 8.55899 12.056 8.86499 11.9075C8.97543 11.8554 9.09337 11.821 9.21449 11.8055C9.25499 11.8055 9.29549 11.7965 9.33449 11.795C9.35249 11.435 9.37649 11.0855 9.41399 10.745C9.45695 10.3065 9.53013 9.87145 9.63299 9.443C9.70622 9.13094 9.80351 8.82503 9.92399 8.528C10.1206 8.03523 10.4104 7.585 10.7775 7.202C11.4705 6.572 12.6405 5.9405 14.514 5.8685C14.634 5.8685 14.7555 5.8685 14.8785 5.8685C18.138 5.8685 19.5015 7.193 20.0655 9.209C20.076 9.2465 20.0865 9.2825 20.0955 9.32C20.1315 9.47 20.1645 9.608 20.1945 9.755C20.2837 10.2008 20.3458 10.6517 20.3805 11.105C20.3985 11.3285 20.412 11.555 20.424 11.7905C20.463 11.7905 20.502 11.7905 20.544 11.801C20.6866 11.8122 20.8246 11.8565 20.947 11.9305C21.0694 12.0044 21.1728 12.106 21.249 12.227C21.4006 12.519 21.4701 12.8466 21.45 13.175Z" fill="white"/>
<path opacity="0.07" d="M21.363 14.1245C21.213 15.248 20.967 16.1555 20.121 16.148C19.3425 19.094 17.289 21.1985 14.871 21.1985C14.6122 21.199 14.354 21.1744 14.1 21.125C17.46 20.537 19.9575 16.598 19.7895 11.927C19.7295 10.223 19.515 8.627 19.0485 7.2905C19.5614 7.87079 19.9227 8.56908 20.1 9.323C20.136 9.473 20.169 9.611 20.199 9.758C20.3274 10.4322 20.4042 11.1151 20.4285 11.801C20.4675 11.801 20.5065 11.801 20.5485 11.8115C20.6911 11.8227 20.8291 11.867 20.9515 11.941C21.0739 12.0149 21.1773 12.1165 21.2535 12.2375C21.504 12.6605 21.468 13.349 21.363 14.1245Z" fill="black"/>
<path opacity="0.07" d="M20.064 9.21199C20.004 9.10549 19.941 9.00049 19.881 8.89399C19.59 8.38249 19.131 7.93549 18.5625 7.78849C17.9625 7.63849 17.325 7.82749 16.734 8.02699C16.1449 8.21961 15.5282 8.31437 14.9085 8.30749C14.2888 8.31404 13.6722 8.21929 13.083 8.02699C12.492 7.82749 11.8605 7.63249 11.256 7.78849C10.6845 7.93849 10.23 8.38849 9.939 8.89399C9.834 9.07849 9.7245 9.26299 9.6315 9.45199C9.70473 9.13994 9.80202 8.83402 9.9225 8.53699C10.1191 8.04422 10.4089 7.59399 10.776 7.21099C11.469 6.58099 12.639 5.94949 14.5125 5.87749C14.6325 5.87749 14.754 5.87749 14.877 5.87749C18.1365 5.87149 19.5 7.19599 20.064 9.21199Z" fill="black"/>
<path d="M21.252 11.405C21.0255 11.9225 20.7435 12.4295 20.583 12.9695C20.5727 13.0086 20.5498 13.0432 20.5178 13.0679C20.4858 13.0926 20.4465 13.106 20.406 13.106C20.3656 13.106 20.3263 13.0926 20.2942 13.0679C20.2622 13.0432 20.2393 13.0086 20.229 12.9695C19.7475 11.225 20.709 7.62499 18.3 7.00849C17.739 6.85849 17.151 7.04449 16.602 7.23049C15.4975 7.57654 14.3135 7.57654 13.209 7.23049C12.66 7.04449 12.0735 6.86449 11.5125 7.00849C10.4865 7.27249 9.98851 8.29549 9.82801 9.25849C9.74702 9.7546 9.73793 10.2598 9.80101 10.7585C9.88801 11.4695 9.72901 12.242 9.55501 12.9335C9.54104 12.9824 9.51153 13.0254 9.47093 13.056C9.43033 13.0867 9.38087 13.1032 9.33001 13.1032C9.27916 13.1032 9.22969 13.0867 9.18909 13.056C9.1485 13.0254 9.11898 12.9824 9.10501 12.9335C9.07108 12.817 9.05341 12.6963 9.05251 12.575C9.06469 12.1734 8.94626 11.7786 8.71501 11.45C8.69578 11.4221 8.67474 11.3956 8.65201 11.3705C8.48251 11.1755 8.25451 11.0345 8.15101 10.7705C8.07914 10.5693 8.07128 10.3508 8.12851 10.145C8.20801 9.818 8.38051 9.53299 8.44651 9.20149C8.58301 8.50849 8.25751 7.817 7.96351 7.17349C7.66951 6.52999 7.39351 5.80249 7.62751 5.13499C7.80451 4.62949 8.23801 4.26499 8.65351 3.93499L9.71251 3.07249C10.275 2.61649 10.725 2.07499 11.391 1.78249C11.9738 1.53418 12.5996 1.4022 13.233 1.39399C13.5416 1.39095 13.8502 1.40598 14.157 1.43899C14.412 1.46599 14.6985 1.55449 14.952 1.48849C15.495 1.34599 15.939 1.17199 16.5195 1.22449C17.0645 1.27225 17.5865 1.46662 18.03 1.78699C18.546 2.16799 18.93 2.70049 19.4205 3.11149C19.578 3.24199 19.7445 3.36049 19.914 3.47599C20.304 3.74299 20.706 3.99199 21.0195 4.33999C21.495 4.86649 21.723 5.57149 21.852 6.26899C22.1696 8.00249 21.9606 9.79139 21.252 11.405Z" fill="#7C7C7C"/>
<path d="M19.914 3.47599C19.1713 3.40546 18.4376 3.26022 17.724 3.04249C16.209 2.57899 14.3295 1.61749 12.846 2.70349C12.15 3.21649 11.7825 4.12399 10.962 4.44649C10.347 4.68799 9.52501 4.57099 9.34351 5.45599C9.30111 5.69248 9.31551 5.93566 9.38551 6.16549C9.76651 7.54849 9.34651 8.59699 8.78551 9.91549C8.58494 10.3749 8.53811 10.8868 8.65201 11.375C8.48251 11.18 8.25451 11.039 8.15101 10.775C8.07914 10.5738 8.07128 10.3553 8.12851 10.1495C8.20801 9.8225 8.38051 9.53749 8.44651 9.206C8.58301 8.51299 8.25751 7.82149 7.96351 7.17799C7.66951 6.53449 7.39351 5.80699 7.62751 5.13949C7.80451 4.63399 8.23801 4.26949 8.65351 3.93949L9.71251 3.07699C10.275 2.61649 10.725 2.07499 11.391 1.78249C11.9738 1.53418 12.5996 1.4022 13.233 1.39399C13.5416 1.39095 13.8502 1.40598 14.157 1.43899C14.412 1.46599 14.6985 1.55449 14.952 1.48849C15.495 1.34599 15.939 1.17199 16.5195 1.22449C17.0645 1.27225 17.5865 1.46662 18.03 1.78699C18.546 2.16799 18.93 2.70049 19.4205 3.11149C19.578 3.24199 19.7445 3.36049 19.914 3.47599Z" fill="#949494"/>
</g>
<defs>
<clipPath id="clip0_7_14212">
<rect width="30" height="32.25" fill="white" transform="translate(0 0.875)"/>
</clipPath>
</defs>
</svg>
