<svg width="18" height="18" viewBox="0 0 18 18" fill="none" xmlns="http://www.w3.org/2000/svg">
<path d="M11.6265 3.18144L14.6355 6.19036M12.8473 1.94359C13.046 1.7449 13.2819 1.5873 13.5415 1.47977C13.8011 1.37224 14.0793 1.31689 14.3603 1.31689C14.6413 1.31689 14.9195 1.37224 15.1791 1.47977C15.4387 1.5873 15.6746 1.7449 15.8733 1.94359C16.072 2.14228 16.2296 2.37815 16.3371 2.63775C16.4447 2.89735 16.5 3.17558 16.5 3.45657C16.5 3.73756 16.4447 4.01579 16.3371 4.27539C16.2296 4.53499 16.072 4.77086 15.8733 4.96955L5.66069 15.1822L1.5 16.3169L2.63473 12.1562L12.8473 1.94359Z" stroke="white" stroke-width="1.5" stroke-linecap="round" stroke-linejoin="round"/>
</svg>
