<svg width="18" height="19" viewBox="0 0 18 19" fill="none" xmlns="http://www.w3.org/2000/svg">
<path d="M1.5 4.81685H3.16667M3.16667 4.81685H16.5M3.16667 4.81685L3.16667 16.4835C3.16667 16.9255 3.34226 17.3495 3.65482 17.662C3.96738 17.9746 4.39131 18.1502 4.83333 18.1502H13.1667C13.6087 18.1502 14.0326 17.9746 14.3452 17.662C14.6577 17.3495 14.8333 16.9255 14.8333 16.4835V4.81685M5.66667 4.81685V3.15019C5.66667 2.70816 5.84226 2.28424 6.15482 1.97168C6.46738 1.65912 6.89131 1.48352 7.33333 1.48352H10.6667C11.1087 1.48352 11.5326 1.65912 11.8452 1.97168C12.1577 2.28424 12.3333 2.70816 12.3333 3.15019V4.81685M7.33333 8.98352V13.9835M10.6667 8.98352V13.9835" stroke="white" stroke-width="1.5" stroke-linecap="round" stroke-linejoin="round"/>
</svg>
